<svg xmlns="http://www.w3.org/2000/svg" version="1.1" xmlns:xlink="http://www.w3.org/1999/xlink" xmlns:svgjs="http://svgjs.dev/svgjs" width="1500" height="1500" viewBox="0 0 1500 1500"><rect width="1500" height="1500" fill="#ffffff"></rect><g transform="matrix(0.6666666666666666,0,0,0.6666666666666666,250,250.00014134817684)"><svg viewBox="0 0 280 280" data-background-color="#ffffff" preserveAspectRatio="xMidYMid meet" height="1500" width="1500" xmlns="http://www.w3.org/2000/svg" xmlns:xlink="http://www.w3.org/1999/xlink"><g id="tight-bounds" transform="matrix(1,0,0,1,0,0.00003957748950256246)"><svg viewBox="0 0 280 280" height="280" width="280"><g><svg viewBox="0 0 280 280" height="280" width="280"><g><svg viewBox="0 0 280 280" height="280" width="280"><g id="textblocktransform"><svg viewBox="0 0 280 280" height="280" width="280" id="textblock"><g><svg viewBox="0 0 280 280" height="280" width="280"><g transform="matrix(1,0,0,1,57.50420886156945,57.50420886156945)"><svg viewBox="0 0 164.9915822768611 164.9915822768611" height="164.9915822768611" width="164.9915822768611"><g id="icon-0"><circle r="82" cx="82.49579113843055" cy="82.49579113843055" fill="#000000" data-fill-palette-color="accent"></circle><svg xmlns="http://www.w3.org/2000/svg" xmlns:xlink="http://www.w3.org/1999/xlink" xmlns:a="http://ns.adobe.com/AdobeSVGViewerExtensions/3.0/" version="1.1" x="24.748737341529164" y="24.74873734152917" viewBox="0 0 97.781 33.653" overflow="visible" enable-background="new -1.167 -34.574 100 100" xml:space="preserve" height="115.49410759380275" width="115.49410759380275" class="icon-xg-0" data-fill-palette-color="quaternary" id="xg-0"><polygon fill="#ffffff" points="40.081,10.15 60.86,10.15 60.86,10.123 61.746,10.123 61.746,8.443 38.652,8.443 38.652,10.123   40.081,10.123 " data-fill-palette-color="quaternary"></polygon><rect x="1.056" y="4.341" fill="#ffffff" width="8.937" height="0.45" data-fill-palette-color="quaternary"></rect><rect x="1.069" y="6.121" fill="#ffffff" width="8.923" height="0.405" data-fill-palette-color="quaternary"></rect><rect x="1.062" y="5.231" fill="#ffffff" width="8.93" height="0.45" data-fill-palette-color="quaternary"></rect><polygon fill="#ffffff" points="9.992,0.339 9.992,0 5.18,0 1.038,0 1.038,3.606 1.047,3.606 1.049,3.9 9.992,3.9 9.992,3.451   5.18,3.451 5.18,3.01 9.992,3.01 9.992,2.561 5.18,2.561 5.18,2.12 9.992,2.12 9.992,1.67 5.18,1.67 5.18,1.229 9.992,1.229   9.992,0.78 5.18,0.78 5.18,0.339 " data-fill-palette-color="quaternary"></polygon><path fill="#ffffff" d="M42.891 22.295V33.64h1.349 1.193 10.435 0.82 1.445V22.295H42.891zM45.434 28.202h2.639v0.206h2.026v-0.206h0.625V32.9h-5.29V28.202zM55.868 32.9h-5.029v-4.698h0.465v0.206h2.026v-0.206h2.538V32.9zM55.868 27.813H53.33v-0.206h-2.026v0.206h-0.465v-5.162h-0.115v5.162h-0.625v-0.206h-2.026v0.206h-2.639v-5.219h10.434V27.813z" data-fill-palette-color="quaternary"></path><rect fill="#ffffff" width="0.631" height="33.653" data-fill-palette-color="quaternary"></rect><path fill="#ffffff" d="M60.822 18.985v-0.398h36.959v-1.624H60.86V10.55H40.081v6.426H3.346v1.624h36.759V19H3.979v14.653h36.289 1.889l-0.001-0.014h0.334V22.295h-0.496v-0.399h16.838v0.399h-0.3V33.64h0.438 1.888 36.29V18.985H60.822zM30.759 22.609h8.623v6.116h-8.623V22.609zM17.32 22.609h11.136v6.116H17.32V22.609zM6.412 22.609h8.624v6.116H6.412V22.609zM15.09 29.724H6.414v-0.8h8.676V29.724zM28.513 29.724H17.319v-0.8h11.194V29.724zM39.416 29.724h-8.675v-0.8h8.675V29.724zM55.268 12.386h3.409v3.059h-3.409V12.386zM50.897 12.386h3.406v3.059h-3.406V12.386zM46.523 12.386h3.407v3.059h-3.407V12.386zM42.15 12.386h3.407v3.059H42.15V12.386zM45.71 16.449h-3.716v-0.8h3.716V16.449zM50.098 16.449h-3.715v-0.8h3.715V16.449zM54.498 16.449h-3.717v-0.8h3.717V16.449zM58.875 16.449H55.16v-0.8h3.716V16.449zM72.671 22.595h11.137v6.118H72.671V22.595zM61.746 22.595h8.622v6.118h-8.622V22.595zM70.386 29.711H61.71v-0.8h8.676V29.711zM83.809 29.711H72.615v-0.8h11.194V29.711zM94.713 29.711h-8.675v-0.8h8.675V29.711zM94.715 28.713h-8.624v-6.118h8.624V28.713z" data-fill-palette-color="quaternary"></path></svg></g></svg></g><g id="text-0"><path d="M19.603 108.221l-16.22-7.614 3.418-10.721 1.832 0.89-2.787 8.74 5.075 2.382 2.121-6.652 1.845 0.882-2.115 6.632 7.45 3.52z" fill="#000000" data-fill-palette-color="primary"></path><path d="M25.78 91.302c-0.522 1.185-1.225 1.981-2.107 2.387-0.886 0.397-1.849 0.366-2.889-0.092v0c-0.158-0.07-0.389-0.19-0.692-0.362v0l-7.502-4.542 0.834-1.892 7.367 4.46c0.271 0.157 0.47 0.264 0.597 0.32v0c0.602 0.265 1.124 0.31 1.565 0.133 0.447-0.174 0.823-0.606 1.128-1.297v0c0.313-0.71 0.401-1.417 0.264-2.12-0.133-0.694-0.443-1.538-0.928-2.532v0l-7.529-4.611 0.825-1.873 7.762 4.725c0.328 0.182 0.572 0.309 0.731 0.378v0c0.837 0.369 1.584 0.425 2.241 0.17v0l0.551 1.764c-0.309 0.204-0.697 0.329-1.163 0.373-0.469 0.051-0.891 0.039-1.267-0.036v0c0.457 0.716 0.685 1.486 0.684 2.312 0.003 0.834-0.154 1.612-0.472 2.335z" fill="#000000" data-fill-palette-color="primary"></path><path d="M32.14 78.799c-0.537 0.946-1.207 1.529-2.009 1.751-0.793 0.219-1.672 0.055-2.636-0.493v0c-0.343-0.195-0.597-0.359-0.76-0.491v0l-9.917-7.47 1.021-1.798 2.541 1.921 1.903-3.352 1.55 1.142-1.913 3.37 5.911 4.467c0.254 0.184 0.417 0.297 0.489 0.338v0c0.934 0.53 1.631 0.388 2.093-0.425v0c0.178-0.313 0.288-0.577 0.33-0.792 0.042-0.215 0.071-0.545 0.085-0.992v0l1.949 0.187c0.095 0.843-0.117 1.722-0.637 2.637z" fill="#000000" data-fill-palette-color="primary"></path><path d="M37.519 70.121c-0.743 1.061-1.587 1.705-2.531 1.931-0.946 0.217-1.885-0.001-2.816-0.652v0c-0.142-0.099-0.345-0.262-0.609-0.489v0l-6.475-5.915 1.186-1.694 6.359 5.808c0.235 0.207 0.41 0.35 0.524 0.43v0c0.539 0.377 1.042 0.522 1.509 0.435 0.473-0.083 0.925-0.434 1.358-1.053v0c0.445-0.636 0.669-1.312 0.672-2.028 0.005-0.707-0.135-1.595-0.418-2.664v0l-6.488-5.987 1.174-1.677 6.694 6.144c0.287 0.243 0.501 0.414 0.643 0.514v0c0.749 0.524 1.471 0.725 2.165 0.602v0l0.198 1.838c-0.343 0.14-0.748 0.187-1.214 0.139-0.47-0.041-0.882-0.135-1.236-0.281v0c0.309 0.791 0.383 1.591 0.222 2.4-0.159 0.819-0.465 1.552-0.917 2.199z" fill="#000000" data-fill-palette-color="primary"></path><path d="M37.843 47.795c0.295-0.34 0.75-0.72 1.363-1.141v0l1.356 1.481c-0.517 0.331-0.916 0.658-1.198 0.982v0c-0.541 0.622-0.808 1.257-0.802 1.905v0c-0.118 0.632-0.048 1.381 0.208 2.246v0l6.072 6.889-1.357 1.56-6.149-6.956c-0.134-0.162-0.345-0.369-0.633-0.619v0c-0.69-0.6-1.355-0.87-1.993-0.811v0l0.011-1.945c0.274-0.083 0.602-0.101 0.983-0.054 0.381 0.047 0.742 0.149 1.082 0.308v0c-0.085-0.578-0.1-1.152-0.047-1.72v0c0.181-0.779 0.549-1.487 1.104-2.125z" fill="#000000" data-fill-palette-color="primary"></path><path d="M47.335 49.077c0.096 0.119 0.256 0.297 0.482 0.531v0c1.531 1.594 3.028 1.687 4.491 0.282v0c0.525-0.504 0.95-1.071 1.276-1.701 0.321-0.635 0.572-1.385 0.751-2.248v0l1.736 0.623c-0.139 0.825-0.433 1.674-0.881 2.546-0.454 0.878-1.01 1.633-1.67 2.267v0c-1.144 1.099-2.369 1.593-3.675 1.483-1.306-0.1-2.516-0.729-3.628-1.888v0c-0.273-0.285-0.537-0.594-0.79-0.927v0c-0.724-1.004-1.253-2.1-1.587-3.287-0.339-1.183-0.401-2.337-0.187-3.465 0.214-1.118 0.742-2.082 1.586-2.892v0c0.649-0.624 1.373-1.035 2.171-1.235 0.802-0.194 1.603-0.166 2.401 0.085 0.793 0.256 1.511 0.719 2.155 1.388v0c0.12 0.125 0.299 0.337 0.538 0.635v0c0.395 0.581 0.775 1.162 1.14 1.743v0zM46.266 47.439l4.812-4.694-0.186-0.239c-0.167-0.224-0.294-0.381-0.38-0.471v0c-0.595-0.619-1.269-0.947-2.023-0.981-0.749-0.03-1.408 0.229-1.978 0.776v0c-0.634 0.609-0.986 1.413-1.055 2.411-0.069 0.998 0.201 2.064 0.81 3.198z" fill="#000000" data-fill-palette-color="primary"></path><path d="M67.219 39.502l-8.297-15.881 1.693-1.187 8.271 15.899z" fill="#000000" data-fill-palette-color="primary"></path><path d="M69.82 26.789c-0.16-0.348-0.288-0.606-0.384-0.774v0c-0.427-0.745-0.993-1.215-1.696-1.41v0l0.61-1.776c0.411 0.02 0.796 0.134 1.156 0.343 0.363 0.215 0.685 0.477 0.966 0.787v0c0.407-1.783 1.313-3.077 2.719-3.884v0c1.045-0.6 2.027-0.804 2.943-0.611 0.914 0.186 1.663 0.79 2.25 1.812v0c0.069 0.12 0.181 0.351 0.337 0.693v0l3.432 8.38-1.778 1.056-3.381-8.23c-0.142-0.318-0.257-0.552-0.343-0.701v0c-0.3-0.523-0.66-0.851-1.08-0.985-0.43-0.137-0.96-0.024-1.591 0.337v0c-0.685 0.393-1.183 0.903-1.495 1.529-0.306 0.623-0.567 1.475-0.784 2.558v0l3.45 8.454-1.793 1.029z" fill="#000000" data-fill-palette-color="primary"></path><path d="M89.539 27.22c-0.993 0.444-1.878 0.517-2.656 0.219-0.769-0.294-1.379-0.947-1.831-1.959v0c-0.161-0.36-0.268-0.643-0.321-0.846v0l-3.561-11.894 1.888-0.843 0.909 3.053 3.519-1.572 0.571 1.839-3.538 1.58 2.114 7.101c0.096 0.299 0.16 0.486 0.194 0.562v0c0.438 0.98 1.084 1.28 1.937 0.898v0c0.329-0.147 0.574-0.294 0.736-0.442 0.161-0.148 0.38-0.397 0.655-0.748v0l1.46 1.305c-0.423 0.735-1.115 1.317-2.076 1.747z" fill="#000000" data-fill-palette-color="primary"></path><path d="M94.421 18.787c0.036 0.149 0.107 0.377 0.212 0.685v0c0.716 2.09 2.034 2.807 3.954 2.148v0c0.688-0.236 1.313-0.571 1.875-1.004 0.559-0.441 1.102-1.015 1.628-1.722v0l1.312 1.296c-0.474 0.69-1.098 1.335-1.873 1.938-0.781 0.605-1.604 1.055-2.469 1.351v0c-1.501 0.514-2.82 0.446-3.958-0.203-1.142-0.641-1.974-1.722-2.494-3.242v0c-0.128-0.373-0.236-0.765-0.326-1.174v0c-0.234-1.216-0.251-2.433-0.053-3.649 0.191-1.215 0.622-2.289 1.291-3.221 0.665-0.923 1.551-1.575 2.658-1.954v0c0.852-0.292 1.681-0.36 2.489-0.205 0.81 0.162 1.523 0.525 2.141 1.089 0.611 0.567 1.068 1.289 1.369 2.167v0c0.056 0.164 0.13 0.432 0.22 0.803v0c0.113 0.693 0.213 1.38 0.3 2.061v0zM94.142 16.851l6.342-2.228-0.068-0.296c-0.057-0.273-0.106-0.469-0.146-0.586v0c-0.278-0.813-0.752-1.393-1.421-1.743-0.667-0.343-1.373-0.386-2.12-0.13v0c-0.832 0.285-1.49 0.866-1.974 1.741-0.483 0.876-0.688 1.956-0.613 3.242z" fill="#000000" data-fill-palette-color="primary"></path><path d="M111.313 5.877c0.438-0.102 1.03-0.144 1.774-0.126v0l0.231 1.995c-0.613-0.035-1.128-0.003-1.546 0.094v0c-0.803 0.187-1.391 0.545-1.766 1.074v0c-0.466 0.443-0.848 1.091-1.147 1.943v0l0.886 9.139-2.013 0.47-0.91-9.24c-0.014-0.21-0.064-0.501-0.15-0.872v0c-0.208-0.89-0.588-1.499-1.141-1.825v0l1.149-1.57c0.271 0.093 0.547 0.271 0.828 0.533 0.282 0.261 0.514 0.556 0.697 0.882v0c0.27-0.518 0.593-0.992 0.97-1.421v0c0.603-0.525 1.316-0.883 2.138-1.076z" fill="#000000" data-fill-palette-color="primary"></path><path d="M117.666 8.969c-0.017-0.382-0.039-0.669-0.064-0.862v0c-0.116-0.851-0.463-1.499-1.041-1.945v0l1.234-1.416c0.373 0.173 0.687 0.424 0.941 0.753 0.255 0.336 0.455 0.7 0.599 1.093v0c1.047-1.499 2.374-2.357 3.98-2.576v0c1.194-0.162 2.18 0.018 2.958 0.542 0.776 0.517 1.244 1.358 1.402 2.525v0c0.019 0.137 0.036 0.394 0.052 0.769v0l0.026 9.056-2.044 0.309-0.036-8.897c-0.012-0.348-0.03-0.608-0.054-0.779v0c-0.081-0.597-0.291-1.037-0.63-1.32-0.347-0.288-0.881-0.384-1.601-0.285v0c-0.782 0.106-1.436 0.391-1.96 0.854-0.517 0.462-1.08 1.154-1.689 2.075v0l0.015 9.131-2.049 0.278z" fill="#000000" data-fill-palette-color="primary"></path><path d="M136.654 16.745c-1.537 0.025-2.727-0.488-3.569-1.541-0.849-1.06-1.287-2.389-1.313-3.989v0c-0.007-0.416 0.014-0.832 0.062-1.248v0c0.152-1.298 0.538-2.465 1.158-3.5 0.62-1.036 1.431-1.856 2.433-2.462 0.995-0.598 2.115-0.908 3.361-0.928v0c0.395-0.007 0.88 0.006 1.456 0.038 0.582 0.032 1.072 0.079 1.467 0.142v0l1.735-0.029-1.062 9.276c-0.028 0.416-0.04 0.704-0.038 0.863v0c0.015 0.928 0.269 1.62 0.762 2.076v0l-1.403 1.27c-0.386-0.305-0.668-0.616-0.846-0.931-0.178-0.316-0.33-0.67-0.454-1.063v0c-0.357 0.609-0.893 1.095-1.607 1.461-0.721 0.365-1.435 0.554-2.142 0.565zM136.726 14.832c0.693-0.011 1.323-0.212 1.892-0.603 0.569-0.39 1.014-0.883 1.336-1.477v0c0.284-0.434 0.456-0.901 0.518-1.401v0l0.749-6.226-0.926-0.057c-0.832-0.055-1.411-0.081-1.737-0.076v0c-1.26 0.021-2.316 0.516-3.165 1.487-0.843 0.97-1.346 2.18-1.509 3.631v0c-0.05 0.333-0.072 0.68-0.066 1.04v0c0.018 1.067 0.275 1.952 0.771 2.657 0.49 0.698 1.202 1.04 2.137 1.025z" fill="#000000" data-fill-palette-color="primary"></path><path d="M150.298 17.218c-1.084-0.09-1.894-0.453-2.432-1.089-0.531-0.628-0.751-1.494-0.659-2.599v0c0.033-0.393 0.075-0.692 0.127-0.896v0l2.617-12.137 2.06 0.172-0.677 3.113 3.842 0.32-0.387 1.886-3.862-0.322-1.573 7.24c-0.06 0.308-0.094 0.503-0.101 0.586v0c-0.089 1.07 0.332 1.644 1.264 1.721v0c0.359 0.03 0.645 0.019 0.858-0.032 0.213-0.052 0.525-0.165 0.935-0.339v0l0.649 1.847c-0.725 0.44-1.612 0.616-2.661 0.529z" fill="#000000" data-fill-palette-color="primary"></path><path d="M156.395 17.504l3.637-12.562 2.04 0.342-3.636 12.552zM161.817 2.681c-0.322-0.049-0.584-0.215-0.786-0.498-0.202-0.283-0.277-0.596-0.225-0.938v0c0.054-0.356 0.245-0.663 0.571-0.922 0.327-0.259 0.661-0.362 1.004-0.31v0c0.342 0.052 0.617 0.227 0.824 0.525 0.208 0.291 0.286 0.608 0.233 0.95v0c-0.054 0.356-0.254 0.658-0.6 0.907-0.338 0.243-0.679 0.338-1.021 0.286z" fill="#000000" data-fill-palette-color="primary"></path><path d="M168.383 20.182c-1.056-0.258-1.933-0.726-2.631-1.403-0.697-0.677-1.163-1.497-1.399-2.46-0.235-0.963-0.219-1.99 0.048-3.08v0c0.086-0.35 0.198-0.693 0.337-1.029v0c0.473-1.204 1.157-2.223 2.053-3.06 0.896-0.836 1.905-1.42 3.028-1.752 1.114-0.327 2.233-0.352 3.356-0.078v0c1.056 0.258 1.93 0.725 2.62 1.401 0.684 0.674 1.143 1.492 1.379 2.455 0.235 0.963 0.22 1.986-0.045 3.069v0c-0.087 0.357-0.201 0.721-0.342 1.093v0c-0.458 1.2-1.13 2.216-2.018 3.047-0.888 0.831-1.888 1.407-3 1.726-1.121 0.325-2.249 0.348-3.386 0.071zM168.907 18.342c1.238 0.303 2.406 0.118 3.505-0.555 1.099-0.673 1.917-1.717 2.456-3.132v0c0.136-0.323 0.237-0.619 0.303-0.889v0c0.281-1.151 0.199-2.14-0.247-2.969-0.446-0.829-1.197-1.373-2.254-1.632v0c-1.238-0.303-2.411-0.112-3.52 0.573-1.11 0.691-1.932 1.734-2.466 3.129v0c-0.083 0.194-0.174 0.492-0.272 0.896v0c-0.278 1.137-0.197 2.119 0.242 2.947 0.446 0.829 1.197 1.373 2.253 1.632z" fill="#000000" data-fill-palette-color="primary"></path><path d="M182.05 14.205c0.165-0.345 0.281-0.609 0.348-0.791v0c0.298-0.805 0.297-1.541-0.004-2.206v0l1.755-0.669c0.248 0.328 0.407 0.697 0.476 1.107 0.067 0.416 0.072 0.832 0.015 1.247v0c1.629-0.83 3.204-0.963 4.724-0.401v0c1.13 0.418 1.915 1.041 2.355 1.869 0.442 0.821 0.459 1.784 0.05 2.887v0c-0.048 0.13-0.153 0.364-0.316 0.703v0l-4.236 8.004-1.95-0.688 4.153-7.869c0.153-0.313 0.259-0.55 0.319-0.712v0c0.209-0.565 0.231-1.052 0.065-1.461-0.17-0.418-0.597-0.753-1.279-1.005v0c-0.741-0.274-1.451-0.33-2.131-0.169-0.674 0.164-1.496 0.51-2.467 1.037v0l-4.281 8.065-1.939-0.718z" fill="#000000" data-fill-palette-color="primary"></path><path d="M195.146 29.999c-1.369-0.701-2.177-1.714-2.424-3.039-0.25-1.334-0.011-2.714 0.718-4.138v0c0.189-0.37 0.404-0.727 0.643-1.072v0c0.745-1.074 1.634-1.922 2.668-2.544 1.034-0.622 2.136-0.964 3.305-1.027 1.159-0.06 2.294 0.194 3.403 0.762v0c0.351 0.18 0.773 0.419 1.266 0.719 0.499 0.302 0.908 0.574 1.228 0.816v0l1.545 0.79-5.302 7.686c-0.22 0.354-0.367 0.602-0.439 0.744v0c-0.423 0.826-0.525 1.556-0.305 2.19v0l-1.835 0.461c-0.197-0.451-0.3-0.858-0.309-1.22-0.009-0.363 0.024-0.746 0.099-1.152v0c-0.601 0.369-1.303 0.547-2.105 0.533-0.808-0.017-1.527-0.187-2.156-0.509zM196.11 28.345c0.617 0.316 1.267 0.435 1.953 0.358 0.685-0.077 1.31-0.302 1.874-0.674v0c0.455-0.25 0.827-0.581 1.116-0.993v0l3.59-5.142-0.79-0.486c-0.708-0.441-1.207-0.735-1.497-0.884v0c-1.122-0.575-2.286-0.634-3.492-0.177-1.2 0.459-2.213 1.291-3.04 2.493v0c-0.201 0.271-0.383 0.566-0.548 0.887v0c-0.486 0.949-0.676 1.852-0.569 2.708 0.103 0.847 0.571 1.483 1.403 1.91z" fill="#000000" data-fill-palette-color="primary"></path><path d="M204.165 34.614l12.144-14.598 1.714 1.08-12.153 14.593z" fill="#000000" data-fill-palette-color="primary"></path><path d="M220.082 47.049c-0.753-0.654-1.319-1.412-1.699-2.274-0.38-0.872-0.535-1.75-0.464-2.634 0.071-0.884 0.375-1.688 0.913-2.413v0l1.923 0.749c-0.606 0.887-0.826 1.811-0.66 2.771 0.175 0.96 0.621 1.751 1.338 2.373v0c0.518 0.45 1.114 0.761 1.789 0.935 0.675 0.174 1.356 0.187 2.043 0.041 0.682-0.141 1.293-0.459 1.833-0.953v0c0.084-0.065 0.194-0.176 0.33-0.333v0c0.373-0.429 0.564-0.918 0.575-1.469 0.01-0.551-0.159-1.285-0.509-2.203v0c-0.475-1.238-0.82-2.208-1.036-2.91-0.216-0.702-0.294-1.398-0.235-2.09 0.054-0.696 0.336-1.337 0.845-1.922v0c0.609-0.701 1.347-1.165 2.215-1.393 0.873-0.223 1.757-0.221 2.651 0.005 0.9 0.231 1.687 0.64 2.362 1.227v0c0.523 0.454 0.91 0.975 1.163 1.56 0.257 0.591 0.359 1.165 0.305 1.725-0.054 0.559-0.256 1.039-0.606 1.441v0c-0.182 0.209-0.371 0.375-0.569 0.497v0l-1.309-1.44c0.117-0.082 0.198-0.149 0.244-0.201v0c0.227-0.261 0.266-0.618 0.116-1.069-0.144-0.447-0.386-0.817-0.726-1.113v0c-0.403-0.35-0.869-0.59-1.398-0.719-0.53-0.13-1.043-0.136-1.541-0.017-0.503 0.114-0.906 0.346-1.21 0.696v0c-0.418 0.481-0.572 1.086-0.462 1.815 0.115 0.724 0.365 1.597 0.751 2.62v0l0.326 0.972c0.404 1.214 0.586 2.235 0.546 3.062-0.041 0.818-0.35 1.559-0.927 2.223v0c-0.768 0.884-1.693 1.484-2.775 1.8-1.083 0.317-2.173 0.346-3.271 0.089-1.093-0.252-2.05-0.735-2.871-1.448z" fill="#000000" data-fill-palette-color="primary"></path><path d="M230.756 56.88c-1.082-1.178-1.58-2.452-1.492-3.821 0.088-1.369 0.746-2.618 1.975-3.747v0c0.296-0.272 0.611-0.528 0.945-0.769v0c1.097-0.772 2.238-1.27 3.424-1.494 1.191-0.229 2.336-0.166 3.433 0.189 1.093 0.35 2.042 0.964 2.848 1.842v0c0.548 0.597 0.934 1.268 1.158 2.013 0.228 0.74 0.254 1.356 0.076 1.848v0l-1.886-0.102c0.081-0.516 0.061-0.963-0.061-1.341-0.126-0.383-0.369-0.771-0.73-1.163v0c-0.886-0.964-1.973-1.456-3.261-1.477-1.288-0.03-2.579 0.413-3.872 1.329v0c-0.176 0.115-0.41 0.306-0.701 0.573v0c-0.837 0.768-1.283 1.588-1.34 2.458-0.057 0.87 0.283 1.706 1.019 2.506v0c0.44 0.48 0.955 0.876 1.545 1.191 0.595 0.31 1.374 0.61 2.337 0.901v0l-0.734 1.689c-0.918-0.211-1.783-0.544-2.597-1-0.819-0.461-1.514-1.003-2.086-1.625z" fill="#000000" data-fill-palette-color="primary"></path><path d="M252.752 53.598l1.233 1.673-6.219 3.383c1.505 0.268 2.718 1.026 3.638 2.274v0c0.736 0.998 1.04 1.948 0.914 2.851-0.131 0.897-0.654 1.682-1.568 2.356v0c-0.128 0.095-0.353 0.239-0.675 0.432v0l-7.936 4.364-1.208-1.639 7.748-4.303c0.327-0.198 0.547-0.338 0.658-0.421v0c0.496-0.366 0.792-0.764 0.887-1.195 0.089-0.427-0.071-0.92-0.482-1.478v0c-0.481-0.652-1.054-1.103-1.72-1.352-0.666-0.249-1.552-0.413-2.659-0.492v0l-8.013 4.381-1.226-1.664z" fill="#000000" data-fill-palette-color="primary"></path><path d="M246.893 79.283c-0.534-0.947-0.794-1.906-0.777-2.878 0.016-0.972 0.295-1.873 0.836-2.703 0.541-0.83 1.301-1.521 2.278-2.073v0c0.314-0.177 0.641-0.33 0.982-0.459v0c1.201-0.479 2.413-0.678 3.636-0.596 1.223 0.081 2.339 0.418 3.349 1.009 1 0.589 1.785 1.387 2.354 2.394v0c0.534 0.947 0.792 1.903 0.772 2.869-0.023 0.96-0.305 1.855-0.847 2.685-0.541 0.83-1.298 1.52-2.269 2.068v0c-0.32 0.18-0.663 0.347-1.031 0.498v0c-1.188 0.488-2.389 0.692-3.603 0.614-1.214-0.079-2.317-0.414-3.312-1.007-1.004-0.595-1.793-1.402-2.368-2.421zM248.593 78.407c0.626 1.11 1.561 1.835 2.803 2.176 1.242 0.341 2.564 0.223 3.965-0.352v0c0.329-0.122 0.614-0.251 0.855-0.388v0c1.032-0.582 1.697-1.32 1.997-2.212 0.299-0.893 0.182-1.813-0.353-2.76v0c-0.626-1.11-1.568-1.835-2.826-2.175-1.264-0.337-2.587-0.222-3.97 0.344v0c-0.198 0.072-0.478 0.21-0.84 0.414v0c-1.019 0.575-1.681 1.306-1.983 2.193-0.299 0.893-0.182 1.813 0.352 2.76z" fill="#000000" data-fill-palette-color="primary"></path><path d="M253.492 92.72c-0.416-1.005-0.558-1.988-0.424-2.95 0.134-0.963 0.519-1.823 1.157-2.583 0.638-0.759 1.475-1.353 2.511-1.782v0c0.333-0.138 0.676-0.25 1.03-0.337v0c1.25-0.331 2.477-0.382 3.682-0.154 1.204 0.228 2.272 0.697 3.202 1.406 0.922 0.705 1.604 1.592 2.047 2.661v0c0.416 1.005 0.556 1.985 0.421 2.941-0.139 0.95-0.527 1.804-1.165 2.563-0.638 0.759-1.472 1.352-2.502 1.779v0c-0.339 0.141-0.7 0.264-1.084 0.37v0c-1.238 0.341-2.455 0.399-3.65 0.174-1.195-0.225-2.251-0.691-3.166-1.398-0.925-0.712-1.611-1.608-2.059-2.69zM255.286 92.056c0.488 1.177 1.328 2.01 2.519 2.498 1.192 0.488 2.518 0.531 3.979 0.129v0c0.341-0.081 0.64-0.175 0.895-0.281v0c1.094-0.453 1.844-1.105 2.249-1.955 0.405-0.85 0.399-1.777-0.017-2.782v0c-0.488-1.177-1.335-2.011-2.542-2.501-1.214-0.487-2.541-0.533-3.983-0.138v0c-0.205 0.048-0.5 0.151-0.883 0.31v0c-1.081 0.448-1.826 1.094-2.234 1.938-0.405 0.85-0.399 1.777 0.017 2.782z" fill="#000000" data-fill-palette-color="primary"></path><path d="M257.303 101.875l18.71-3.24 0.604 1.934-18.714 3.23z" fill="#000000" data-fill-palette-color="primary"></path><path d="M6.311 141.221c0-1.191 0.965-2.156 2.156-2.155 1.191 0 2.156 0.965 2.156 2.155 0 1.191-0.965 2.156-2.156 2.156-1.191 0-2.156-0.965-2.156-2.156z" fill="#000000" data-fill-palette-color="primary"></path><path d="M268.138 141.221c0-1.191 0.965-2.156 2.156-2.155 1.191 0 2.156 0.965 2.156 2.155 0 1.191-0.965 2.156-2.156 2.156-1.191 0-2.156-0.965-2.156-2.156z" fill="#000000" data-fill-palette-color="primary"></path></g><g id="text-1"><path d="M6.559 178.381l17.634-3.179 3.418 10.72-2.009 0.335-2.787-8.741-5.516 0.996 2.12 6.652-2.015 0.348-2.114-6.632-8.112 1.441z" fill="#000000" data-fill-palette-color="primary"></path><path d="M12.909 196.811c-0.522-1.185-0.635-2.241-0.339-3.166 0.305-0.922 0.978-1.611 2.018-2.069v0c0.158-0.07 0.403-0.159 0.734-0.267v0l8.415-2.469 0.833 1.892-8.264 2.425c-0.299 0.094-0.512 0.169-0.639 0.225v0c-0.602 0.265-0.987 0.62-1.154 1.065-0.174 0.447-0.108 1.017 0.196 1.707v0c0.313 0.71 0.775 1.252 1.386 1.626 0.602 0.371 1.434 0.712 2.494 1.025v0l8.484-2.443 0.825 1.873-8.725 2.538c-0.356 0.119-0.614 0.214-0.773 0.283v0c-0.837 0.369-1.383 0.882-1.638 1.539v0l-1.673-0.784c0.058-0.366 0.228-0.736 0.51-1.11 0.279-0.38 0.573-0.684 0.881-0.911v0c-0.836-0.146-1.559-0.498-2.167-1.054-0.618-0.56-1.086-1.202-1.404-1.925z" fill="#000000" data-fill-palette-color="primary"></path><path d="M19.638 210.741c-0.537-0.946-0.695-1.82-0.473-2.622 0.219-0.793 0.81-1.463 1.773-2.011v0c0.343-0.195 0.614-0.329 0.812-0.401v0l11.497-4.687 1.021 1.798-2.952 1.198 1.903 3.352-1.776 0.745-1.913-3.37-6.865 2.786c-0.288 0.124-0.468 0.206-0.541 0.248v0c-0.934 0.53-1.17 1.202-0.708 2.014v0c0.178 0.313 0.348 0.543 0.511 0.69 0.163 0.147 0.432 0.34 0.808 0.581v0l-1.159 1.578c-0.772-0.35-1.418-0.983-1.938-1.899z" fill="#000000" data-fill-palette-color="primary"></path><path d="M25.996 220.387c-0.743-1.061-1.059-2.074-0.948-3.039 0.12-0.964 0.646-1.771 1.577-2.422v0c0.142-0.099 0.365-0.234 0.668-0.405v0l7.774-4.059 1.185 1.694-7.634 3.987c-0.275 0.15-0.47 0.265-0.583 0.345v0c-0.539 0.377-0.848 0.8-0.925 1.269-0.083 0.473 0.091 1.018 0.524 1.636v0c0.445 0.636 1.003 1.077 1.676 1.326 0.663 0.246 1.545 0.419 2.646 0.519v0l7.846-4.046 1.174 1.677-8.065 4.186c-0.326 0.186-0.56 0.329-0.702 0.428v0c-0.749 0.524-1.185 1.134-1.308 1.829v0l-1.794-0.444c-0.014-0.371 0.081-0.767 0.284-1.188 0.2-0.427 0.429-0.782 0.688-1.065v0c-0.849 0.019-1.626-0.185-2.331-0.613-0.715-0.43-1.299-0.968-1.752-1.615z" fill="#000000" data-fill-palette-color="primary"></path><path d="M47.725 226.058c0.295 0.34 0.609 0.843 0.94 1.509v0l-1.655 1.136c-0.256-0.558-0.524-0.999-0.806-1.323v0c-0.541-0.622-1.132-0.975-1.775-1.06v0c-0.609-0.205-1.36-0.24-2.253-0.106v0l-7.667 5.054-1.356-1.561 7.745-5.121c0.18-0.11 0.413-0.29 0.7-0.54v0c0.69-0.6 1.05-1.22 1.081-1.862v0l1.924 0.282c0.044 0.283 0.016 0.61-0.083 0.981-0.1 0.371-0.251 0.714-0.455 1.029v0c0.584-0.003 1.154 0.061 1.71 0.193v0c0.746 0.288 1.396 0.751 1.95 1.389z" fill="#000000" data-fill-palette-color="primary"></path><path d="M45.725 235.042c-0.116 0.1-0.286 0.268-0.512 0.503v0c-1.531 1.594-1.564 3.093-0.1 4.499v0c0.525 0.504 1.108 0.906 1.751 1.207 0.648 0.296 1.407 0.515 2.277 0.659v0l-0.553 1.76c-0.83-0.106-1.69-0.365-2.58-0.778-0.895-0.418-1.672-0.944-2.332-1.577v0c-1.144-1.099-1.687-2.303-1.63-3.612 0.047-1.309 0.627-2.543 1.74-3.702v0c0.273-0.285 0.572-0.56 0.895-0.826v0c0.974-0.764 2.048-1.337 3.22-1.718 1.168-0.386 2.319-0.495 3.455-0.327 1.125 0.168 2.11 0.658 2.954 1.469v0c0.649 0.624 1.09 1.33 1.321 2.119 0.227 0.794 0.231 1.595 0.012 2.402-0.224 0.803-0.657 1.539-1.3 2.209v0c-0.12 0.125-0.324 0.313-0.614 0.563v0c-0.565 0.418-1.13 0.821-1.695 1.21v0zM47.319 233.908l4.884 4.619 0.231-0.196c0.217-0.176 0.369-0.309 0.455-0.398v0c0.595-0.619 0.895-1.306 0.899-2.061 0-0.75-0.285-1.398-0.855-1.945v0c-0.634-0.609-1.452-0.928-2.451-0.957-1-0.029-2.054 0.284-3.163 0.938z" fill="#000000" data-fill-palette-color="primary"></path><path d="M59.357 254.149l12.108-13.209 1.692 1.187-12.133 13.191z" fill="#000000" data-fill-palette-color="primary"></path><path d="M72.19 251.524c0.22-0.313 0.378-0.554 0.474-0.722v0c0.427-0.745 0.548-1.47 0.363-2.176v0l1.84-0.369c0.19 0.365 0.286 0.755 0.287 1.17-0.002 0.422-0.066 0.832-0.192 1.232v0c1.744-0.548 3.319-0.419 4.725 0.388v0c1.045 0.6 1.716 1.344 2.013 2.233 0.3 0.883 0.157 1.835-0.429 2.856v0c-0.069 0.12-0.212 0.334-0.428 0.641v0l-5.504 7.191-1.809-1.002 5.4-7.071c0.202-0.283 0.347-0.5 0.433-0.65v0c0.3-0.523 0.402-0.999 0.305-1.43-0.099-0.44-0.464-0.841-1.094-1.203v0c-0.685-0.393-1.376-0.566-2.074-0.52-0.692 0.05-1.56 0.255-2.605 0.614v0l-5.558 7.244-1.793-1.029z" fill="#000000" data-fill-palette-color="primary"></path><path d="M83.675 268.349c-0.993-0.444-1.638-1.054-1.935-1.831-0.294-0.769-0.215-1.659 0.237-2.671v0c0.161-0.36 0.3-0.629 0.416-0.804v0l6.482-10.589 1.888 0.843-1.668 2.715 3.52 1.572-0.989 1.652-3.538-1.581-3.878 6.313c-0.159 0.27-0.255 0.444-0.289 0.52v0c-0.438 0.98-0.23 1.661 0.624 2.042v0c0.329 0.147 0.602 0.231 0.82 0.253 0.218 0.022 0.55 0.018 0.995-0.011v0l0.001 1.958c-0.83 0.176-1.725 0.049-2.686-0.381z" fill="#000000" data-fill-palette-color="primary"></path><path d="M93.667 265.855c-0.062 0.14-0.146 0.363-0.252 0.671v0c-0.716 2.09-0.114 3.464 1.806 4.123v0c0.688 0.236 1.387 0.354 2.097 0.355 0.712-0.005 1.493-0.126 2.342-0.361v0l0.241 1.829c-0.797 0.254-1.687 0.381-2.668 0.382-0.988-0.002-1.914-0.151-2.779-0.447v0c-1.501-0.514-2.501-1.377-3.001-2.588-0.509-1.207-0.503-2.57 0.017-4.091v0c0.128-0.373 0.282-0.749 0.463-1.126v0c0.561-1.104 1.293-2.076 2.196-2.916 0.896-0.842 1.895-1.427 2.995-1.753 1.091-0.322 2.191-0.293 3.298 0.087v0c0.852 0.292 1.549 0.747 2.091 1.365 0.54 0.624 0.881 1.349 1.024 2.173 0.136 0.823 0.053 1.673-0.248 2.551v0c-0.056 0.164-0.162 0.42-0.319 0.77v0c-0.336 0.617-0.678 1.221-1.027 1.811v0zM94.634 264.154l6.376 2.13 0.128-0.275c0.123-0.251 0.204-0.435 0.244-0.553v0c0.278-0.813 0.261-1.562-0.054-2.248-0.316-0.679-0.848-1.147-1.594-1.403v0c-0.832-0.285-1.708-0.23-2.627 0.165-0.919 0.395-1.743 1.123-2.473 2.184z" fill="#000000" data-fill-palette-color="primary"></path><path d="M114.291 263.814c0.438 0.102 0.987 0.327 1.646 0.673v0l-0.676 1.89c-0.534-0.302-1.01-0.503-1.429-0.6v0c-0.803-0.187-1.489-0.127-2.058 0.181v0c-0.614 0.191-1.243 0.602-1.889 1.234v0l-3.253 8.587-2.013-0.47 3.276-8.688c0.081-0.194 0.165-0.477 0.252-0.848v0c0.208-0.89 0.136-1.604-0.215-2.142v0l1.725-0.899c0.201 0.204 0.37 0.485 0.507 0.844 0.137 0.359 0.215 0.726 0.234 1.1v0c0.472-0.345 0.971-0.627 1.499-0.844v0c0.773-0.204 1.571-0.209 2.394-0.018z" fill="#000000" data-fill-palette-color="primary"></path><path d="M118.308 268.756c0.086-0.373 0.142-0.655 0.168-0.847v0c0.116-0.851-0.045-1.568-0.483-2.153v0l1.567-1.034c0.313 0.266 0.549 0.592 0.705 0.977 0.156 0.392 0.252 0.796 0.286 1.213v0c1.41-1.164 2.917-1.637 4.524-1.419v0c1.194 0.162 2.096 0.6 2.705 1.312 0.61 0.705 0.836 1.641 0.677 2.808v0c-0.019 0.137-0.07 0.389-0.155 0.754v0l-2.394 8.734-2.053-0.248 2.342-8.583c0.081-0.339 0.133-0.594 0.157-0.765v0c0.081-0.597-0.004-1.077-0.255-1.44-0.257-0.371-0.746-0.605-1.467-0.703v0c-0.782-0.106-1.488-0.007-2.117 0.299-0.622 0.307-1.349 0.823-2.182 1.549v0l-2.424 8.803-2.049-0.279z" fill="#000000" data-fill-palette-color="primary"></path><path d="M136.419 279.864c-1.537-0.025-2.709-0.578-3.516-1.658-0.813-1.087-1.207-2.431-1.18-4.031v0c0.007-0.416 0.041-0.831 0.104-1.245v0c0.195-1.292 0.619-2.446 1.273-3.46 0.654-1.014 1.492-1.808 2.512-2.379 1.014-0.565 2.144-0.837 3.391-0.817v0c0.395 0.007 0.879 0.035 1.453 0.086 0.581 0.051 1.068 0.115 1.462 0.191v0l1.735 0.029-1.368 9.235c-0.042 0.415-0.064 0.702-0.067 0.862v0c-0.015 0.928 0.215 1.628 0.693 2.1v0l-1.444 1.223c-0.376-0.318-0.648-0.638-0.815-0.959-0.168-0.321-0.307-0.681-0.419-1.077v0c-0.377 0.596-0.929 1.065-1.655 1.406-0.733 0.341-1.453 0.506-2.159 0.494zM136.555 277.955c0.693 0.011 1.329-0.168 1.91-0.54 0.581-0.371 1.043-0.849 1.385-1.432v0c0.298-0.425 0.486-0.886 0.564-1.383v0l0.954-6.198-0.923-0.088c-0.83-0.083-1.408-0.127-1.733-0.133v0c-1.26-0.021-2.331 0.439-3.213 1.381-0.875 0.942-1.417 2.134-1.629 3.579v0c-0.061 0.332-0.094 0.677-0.1 1.037v0c-0.018 1.067 0.21 1.96 0.683 2.682 0.466 0.714 1.167 1.079 2.102 1.095z" fill="#000000" data-fill-palette-color="primary"></path><path d="M151.492 279.552c-1.084 0.09-1.943-0.133-2.579-0.671-0.628-0.531-0.988-1.349-1.08-2.454v0c-0.033-0.393-0.041-0.695-0.023-0.905v0l0.572-12.403 2.06-0.171-0.152 3.182 3.841-0.32-0.069 1.924-3.862 0.322-0.352 7.4c-0.009 0.313-0.009 0.512-0.003 0.595v0c0.089 1.07 0.6 1.566 1.532 1.488v0c0.359-0.03 0.639-0.088 0.84-0.174 0.201-0.086 0.49-0.249 0.866-0.49v0l0.946 1.715c-0.642 0.554-1.488 0.875-2.537 0.962z" fill="#000000" data-fill-palette-color="primary"></path><path d="M158.451 278.433l-0.269-13.075 2.049-0.281 0.267 13.065zM159.213 262.668c-0.322 0.049-0.621-0.031-0.899-0.242-0.277-0.21-0.442-0.486-0.494-0.828v0c-0.054-0.356 0.036-0.706 0.271-1.05 0.235-0.344 0.523-0.542 0.866-0.595v0c0.342-0.052 0.657 0.033 0.942 0.256 0.285 0.216 0.454 0.495 0.506 0.837v0c0.054 0.356-0.047 0.704-0.303 1.045-0.251 0.332-0.547 0.525-0.889 0.577z" fill="#000000" data-fill-palette-color="primary"></path><path d="M171.748 276.024c-1.056 0.258-2.05 0.248-2.981-0.03-0.931-0.279-1.723-0.791-2.376-1.537-0.653-0.746-1.113-1.664-1.379-2.754v0c-0.086-0.35-0.144-0.706-0.176-1.069v0c-0.136-1.286 0-2.506 0.409-3.662 0.409-1.155 1.035-2.139 1.878-2.951 0.837-0.804 1.818-1.343 2.941-1.618v0c1.056-0.258 2.047-0.247 2.971 0.033 0.917 0.282 1.703 0.796 2.356 1.542 0.653 0.746 1.112 1.66 1.377 2.743v0c0.087 0.357 0.154 0.732 0.201 1.128v0c0.148 1.276 0.02 2.487-0.384 3.634-0.404 1.147-1.026 2.119-1.865 2.916-0.844 0.805-1.835 1.347-2.972 1.625zM171.365 274.15c1.238-0.303 2.189-1.006 2.853-2.109 0.664-1.104 0.909-2.408 0.733-3.913v0c-0.028-0.35-0.076-0.659-0.141-0.928v0c-0.281-1.151-0.811-1.991-1.59-2.52-0.778-0.53-1.696-0.666-2.752-0.407v0c-1.238 0.303-2.191 1.014-2.858 2.132-0.666 1.125-0.914 2.43-0.744 3.914v0c0.016 0.21 0.073 0.517 0.172 0.921v0c0.278 1.137 0.803 1.971 1.575 2.503 0.778 0.53 1.696 0.666 2.752 0.407z" fill="#000000" data-fill-palette-color="primary"></path><path d="M180.397 263.773c-0.1-0.369-0.183-0.645-0.251-0.827v0c-0.298-0.805-0.778-1.363-1.439-1.672v0l0.896-1.65c0.402 0.088 0.763 0.264 1.083 0.53 0.322 0.272 0.597 0.584 0.823 0.936v0c0.696-1.691 1.804-2.817 3.324-3.38v0c1.13-0.418 2.132-0.457 3.004-0.115 0.87 0.335 1.509 1.055 1.919 2.16v0c0.048 0.13 0.121 0.376 0.218 0.739v0l1.995 8.833-1.928 0.747-1.971-8.676c-0.088-0.337-0.162-0.586-0.221-0.749v0c-0.209-0.565-0.51-0.949-0.903-1.151-0.401-0.206-0.943-0.183-1.625 0.07v0c-0.741 0.274-1.316 0.694-1.727 1.26-0.405 0.563-0.804 1.361-1.197 2.393v0l2.001 8.908-1.939 0.718z" fill="#000000" data-fill-palette-color="primary"></path><path d="M201.605 265.055c-1.369 0.701-2.663 0.765-3.883 0.191-1.229-0.577-2.208-1.577-2.938-3.002v0c-0.189-0.37-0.354-0.752-0.494-1.147v0c-0.436-1.232-0.604-2.449-0.505-3.652 0.1-1.203 0.466-2.297 1.098-3.282 0.629-0.976 1.498-1.748 2.607-2.316v0c0.351-0.18 0.792-0.382 1.323-0.608 0.537-0.228 0.997-0.401 1.38-0.519v0l1.544-0.791 3.138 8.793c0.159 0.386 0.274 0.649 0.347 0.792v0c0.423 0.826 0.956 1.335 1.599 1.527v0l-0.698 1.758c-0.481-0.104-0.871-0.258-1.171-0.462-0.299-0.205-0.591-0.456-0.876-0.754v0c-0.052 0.704-0.318 1.377-0.799 2.02-0.486 0.646-1.044 1.13-1.672 1.452zM200.826 263.306c0.617-0.316 1.094-0.774 1.431-1.375 0.338-0.601 0.521-1.239 0.549-1.915v0c0.063-0.515 0.012-1.01-0.154-1.486v0l-2.074-5.918-0.856 0.356c-0.771 0.317-1.302 0.55-1.592 0.699v0c-1.122 0.575-1.851 1.485-2.185 2.73-0.329 1.242-0.246 2.55 0.247 3.924v0c0.102 0.321 0.235 0.642 0.4 0.963v0c0.486 0.949 1.108 1.631 1.864 2.045 0.747 0.411 1.537 0.403 2.37-0.023z" fill="#000000" data-fill-palette-color="primary"></path><path d="M211.469 259.408l-7.943-17.248 1.713-1.08 7.935 17.253z" fill="#000000" data-fill-palette-color="primary"></path><path d="M229.743 246.513c-0.753 0.654-1.583 1.109-2.489 1.364-0.916 0.255-1.807 0.286-2.673 0.093-0.865-0.193-1.619-0.607-2.262-1.242v0l1.01-1.799c0.794 0.723 1.678 1.07 2.652 1.04 0.975-0.04 1.821-0.371 2.537-0.993v0c0.518-0.45 0.909-0.997 1.176-1.641 0.266-0.644 0.375-1.317 0.325-2.017-0.045-0.695-0.274-1.345-0.688-1.949v0c-0.052-0.092-0.147-0.217-0.283-0.373v0c-0.373-0.429-0.831-0.687-1.375-0.774-0.544-0.087-1.295-0.022-2.252 0.196v0c-1.292 0.297-2.301 0.504-3.026 0.619-0.725 0.116-1.426 0.096-2.102-0.059-0.682-0.151-1.277-0.519-1.786-1.104v0c-0.609-0.701-0.965-1.496-1.07-2.388-0.099-0.896 0.026-1.771 0.376-2.625 0.355-0.859 0.869-1.581 1.544-2.167v0c0.523-0.454 1.092-0.765 1.707-0.934 0.621-0.172 1.204-0.193 1.75-0.061 0.546 0.132 0.993 0.399 1.343 0.801v0c0.182 0.209 0.319 0.42 0.412 0.633v0l-1.608 1.095c-0.065-0.127-0.12-0.217-0.166-0.269v0c-0.227-0.261-0.574-0.35-1.041-0.265-0.462 0.081-0.863 0.268-1.204 0.564v0c-0.403 0.35-0.705 0.778-0.907 1.284-0.202 0.506-0.28 1.014-0.232 1.523 0.043 0.514 0.216 0.946 0.52 1.296v0c0.418 0.481 0.995 0.718 1.733 0.71 0.732-0.012 1.632-0.138 2.699-0.377v0l1.008-0.187c1.258-0.231 2.295-0.269 3.108-0.114 0.804 0.155 1.495 0.564 2.072 1.228v0c0.768 0.884 1.233 1.883 1.395 3 0.162 1.116 0.04 2.2-0.368 3.251-0.402 1.047-1.014 1.927-1.835 2.641z" fill="#000000" data-fill-palette-color="primary"></path><path d="M241.069 235.035c-1.082 1.178-2.309 1.782-3.681 1.811-1.371 0.029-2.672-0.521-3.901-1.651v0c-0.296-0.272-0.578-0.564-0.846-0.875v0c-0.862-1.027-1.455-2.122-1.78-3.285-0.329-1.167-0.363-2.313-0.101-3.437 0.256-1.119 0.788-2.117 1.593-2.995v0c0.548-0.597 1.184-1.038 1.907-1.323 0.718-0.29 1.33-0.368 1.836-0.233v0l0.058 1.888c-0.521-0.037-0.965 0.021-1.331 0.174-0.371 0.158-0.737 0.433-1.097 0.826v0c-0.886 0.964-1.284 2.089-1.195 3.374 0.079 1.286 0.63 2.535 1.652 3.747v0c0.13 0.166 0.34 0.383 0.63 0.649v0c0.837 0.768 1.691 1.144 2.563 1.127 0.872-0.017 1.676-0.427 2.411-1.228v0c0.44-0.48 0.792-1.026 1.056-1.64 0.258-0.619 0.491-1.42 0.699-2.405v0l1.746 0.588c-0.132 0.932-0.391 1.823-0.777 2.673-0.39 0.855-0.871 1.593-1.442 2.215z" fill="#000000" data-fill-palette-color="primary"></path><path d="M233.463 214.63l1.232-1.673 5.073 4.938c-0.19-1.517 0.175-2.9 1.095-4.148v0c0.736-0.998 1.553-1.57 2.452-1.717 0.895-0.141 1.8 0.126 2.715 0.8v0c0.128 0.095 0.333 0.267 0.613 0.517v0l6.518 6.287-1.208 1.639-6.404-6.126c-0.286-0.254-0.485-0.422-0.597-0.504v0c-0.496-0.366-0.965-0.53-1.405-0.493-0.435 0.041-0.857 0.34-1.268 0.898v0c-0.481 0.652-0.742 1.333-0.783 2.043-0.041 0.71 0.065 1.605 0.318 2.686v0l6.558 6.356-1.227 1.664z" fill="#000000" data-fill-palette-color="primary"></path><path d="M259.232 210.123c-0.534 0.947-1.222 1.665-2.062 2.153-0.84 0.488-1.756 0.715-2.746 0.681-0.991-0.034-1.975-0.327-2.952-0.878v0c-0.314-0.177-0.614-0.378-0.901-0.604v0c-1.031-0.781-1.828-1.715-2.39-2.804-0.563-1.089-0.852-2.218-0.867-3.389-0.013-1.161 0.265-2.245 0.833-3.252v0c0.534-0.947 1.22-1.662 2.057-2.143 0.833-0.476 1.745-0.697 2.736-0.663 0.991 0.034 1.972 0.325 2.943 0.873v0c0.32 0.18 0.64 0.389 0.96 0.625v0c1.032 0.765 1.827 1.687 2.387 2.767 0.56 1.08 0.843 2.198 0.851 3.355 0.01 1.167-0.273 2.26-0.849 3.279zM257.603 209.12c0.626-1.11 0.764-2.285 0.414-3.524-0.35-1.24-1.134-2.31-2.351-3.212v0c-0.274-0.218-0.532-0.396-0.773-0.531v0c-1.032-0.582-2.007-0.771-2.926-0.566-0.919 0.205-1.646 0.781-2.181 1.728v0c-0.626 1.11-0.76 2.291-0.401 3.544 0.365 1.256 1.147 2.329 2.346 3.221v0c0.164 0.132 0.427 0.301 0.789 0.504v0c1.019 0.575 1.987 0.763 2.903 0.565 0.919-0.205 1.646-0.781 2.18-1.729z" fill="#000000" data-fill-palette-color="primary"></path><path d="M266.581 195.146c-0.416 1.005-1.012 1.8-1.787 2.386-0.775 0.586-1.657 0.922-2.644 1.007-0.988 0.086-2-0.086-3.036-0.516v0c-0.333-0.138-0.655-0.301-0.967-0.49v0c-1.118-0.65-2.021-1.482-2.711-2.495-0.69-1.013-1.113-2.099-1.27-3.259-0.153-1.151-0.008-2.26 0.435-3.329v0c0.416-1.005 1.011-1.797 1.783-2.377 0.77-0.573 1.649-0.903 2.636-0.988 0.988-0.086 1.997 0.085 3.027 0.512v0c0.339 0.141 0.682 0.309 1.028 0.505v0c1.116 0.635 2.018 1.455 2.704 2.458 0.686 1.004 1.103 2.08 1.249 3.228 0.15 1.157 0.002 2.276-0.447 3.358zM264.843 194.347c0.488-1.177 0.483-2.36-0.014-3.549-0.497-1.188-1.405-2.156-2.722-2.904v0c-0.299-0.184-0.576-0.329-0.832-0.435v0c-1.094-0.453-2.085-0.523-2.972-0.208-0.888 0.315-1.539 0.974-1.956 1.979v0c-0.488 1.177-0.478 2.366 0.029 3.566 0.514 1.203 1.42 2.174 2.718 2.914v0c0.179 0.112 0.46 0.247 0.844 0.406v0c1.081 0.448 2.065 0.518 2.949 0.21 0.888-0.315 1.539-0.974 1.956-1.979z" fill="#000000" data-fill-palette-color="primary"></path><path d="M270.371 184.648l-17.231-7.98 0.604-1.934 17.228 7.99z" fill="#000000" data-fill-palette-color="primary"></path></g></svg></g></svg></g></svg></g></svg></g><defs></defs></svg><rect width="280" height="280" fill="none" stroke="none" visibility="hidden"></rect></g></svg></g></svg>